<?xml version="1.0" encoding="UTF-8"?>
<svg id="Layer_1" data-name="Layer 1" xmlns="http://www.w3.org/2000/svg" version="1.1" viewBox="0 0 792 612">
  <defs>
    <style>
      .cls-1 {
        fill: #c0d3e1;
        stroke: #8697a9;
        stroke-miterlimit: 10;
        stroke-width: 12px;
      }

      .cls-2 {
        font-family: SavoyeLetPlain, 'Savoye LET';
        font-size: 231.9px;
        opacity: .74;
      }

      .cls-2, .cls-3 {
        fill: #fff;
      }

      .cls-4 {
        opacity: .8;
      }

      .cls-3 {
        stroke-width: 0px;
      }
    </style>
  </defs>
  <rect class="cls-1" x="242.2" y="152.2" width="307.61" height="307.61" rx="153.8" ry="153.8"/>
  <text class="cls-2" transform="translate(229.97 366.61) scale(.65 1)"><tspan x="0" y="0">Ava H</tspan></text>
  <g class="cls-4">
    <path class="cls-3" d="M426.24,210.07c-.23,3.54,2.38,7.18,5.91,7.86,3.3.64,6.65-.88,8.5-3.66s1.46-6.45-.36-9.01c-1.07-1.5-2.4-2.59-4.11-3.28-1.5-.61-3.15-.62-4.72-.34-3.35.61-6.36,3.34-7.15,6.67-.3,1.27.4,2.77,1.75,3.08,1.28.29,2.75-.38,3.08-1.75.01-.05.22-.78.23-.77.02.01-.28.57-.06.16.05-.09.09-.19.15-.28.02-.04.41-.69.43-.67s-.41.48-.09.13c.11-.12.21-.24.32-.36.17-.17.37-.31.53-.49.23-.25-.51.33-.06.05.09-.06.18-.12.27-.18.18-.12.37-.22.56-.32.12-.06.25-.11.36-.18.17-.08.1-.05-.22.1.08-.03.15-.06.23-.08.23-.07.46-.15.7-.2.1-.02.21-.04.31-.07.52-.12-.45,0-.11.01.24.01.48-.03.72-.03.11,0,.21.01.32.01.53,0-.51-.12-.03,0,.26.06.52.11.78.2.1.03.21.09.31.11-.51-.12-.3-.14-.14-.04.24.14.48.28.71.43s.03.17-.11-.09c.05.1.29.25.37.34s.16.16.23.24c.06.06.43.35.13.13-.28-.21.04.05.1.15.06.09.12.19.18.28.13.22.24.44.35.66.16.31-.19-.59-.03-.06.05.16.11.31.15.47.02.06.11.64.14.65-.12-.03-.04-.56-.03-.17,0,.14.01.27.01.41s-.01.27-.01.41c0,.24-.14.24.03-.17-.1.24-.14.55-.2.8-.13.5.23-.34.04-.08-.07.1-.12.24-.19.35-.05.09-.12.18-.17.27-.23.41.08-.15.11-.12.02.02-.51.55-.54.59-.08.07-.16.14-.24.21-.4.36.46-.28,0,0-.21.12-.42.24-.62.37-.43.25,0-.11.09-.02,0,0-.32.12-.3.11-.23.08-.46.13-.69.19-.42.11-.1-.14.12,0-.07-.05-.39.03-.47.03-.11,0-.21,0-.32,0-.08,0-.16,0-.24-.02-.2-.02-.1,0,.27.04-.03-.04-.79-.17-.77-.21.05-.08.49.26.14.05-.15-.09-.31-.18-.47-.27-.5-.26.25.25,0,.02-.13-.12-.27-.24-.39-.37-.09-.1-.24-.22-.3-.34l.17.22c-.07-.1-.14-.2-.2-.3-.06-.1-.12-.21-.18-.31-.04-.08-.08-.16-.12-.24-.08-.17-.05-.11.08.18.09-.1-.33-.71-.23-.87l.04.31c-.01-.09-.02-.18-.02-.27-.01-.21,0-.42,0-.63.08-1.31-1.21-2.56-2.5-2.5-1.43.06-2.41,1.1-2.5,2.5h0Z"/>
  </g>
  <g class="cls-4">
    <path class="cls-3" d="M443.6,206.97c4.22-8.07,11.61-14.07,20.03-17.39,4.28-1.69,8.83-2.81,13.42-3.21,5.07-.43,10.14-.13,14.26,3.18,3.7,2.97,6.23,7.25,8.17,11.51,1.61,3.52,2.94,8.12,1.6,11.91-1.6,4.5-7.43,5.09-11.49,5.74-5.14.82-10.41.98-15.6.63-11.83-.81-23.37-4.67-33.32-11.1-2.71-1.75-5.22,2.58-2.52,4.32,9.9,6.39,21.24,10.25,32.93,11.52,5.83.63,11.71.56,17.53-.21s12.14-1.56,15.71-6.41c3.08-4.18,2.61-9.97,1.15-14.67-1.57-5.06-4.31-10-7.79-14-3.9-4.49-9.03-7.11-14.97-7.51-5.43-.37-11.14.55-16.34,2.1-11.23,3.34-21.56,10.55-27.07,21.08-1.49,2.85,2.82,5.38,4.32,2.52h0Z"/>
  </g>
  <g class="cls-4">
    <path class="cls-3" d="M428.29,202.77c-9.95-5.88-20.21-11.71-31.45-14.74-9.86-2.65-23.32-4.17-31.16,3.92-3.58,3.7-5.39,8.69-6.69,13.58s-3.14,11.2.72,15.66c1.84,2.12,4.59,3.34,7.15,4.34s5.27,1.61,8.01,1.96c5.61.73,11.34.17,16.81-1.16,12.75-3.11,23.79-10.67,35.12-16.96,2.81-1.56.29-5.88-2.52-4.32-9.3,5.17-18.29,11.2-28.36,14.78-9.09,3.24-19.85,4.6-28.88.37-1.84-.86-3.97-1.93-4.51-4.06s.11-4.55.63-6.68c1.05-4.31,2.17-8.82,4.8-12.48,5.69-7.9,17.62-6.54,25.87-4.57,11.49,2.75,21.87,8.71,31.95,14.67,2.78,1.64,5.29-2.68,2.52-4.32h0Z"/>
  </g>
  <g class="cls-4">
    <path class="cls-3" d="M426.45,212.95c-16.52,5.72-28.9,21.33-30.22,38.84-.4,5.32.62,10.54,3.27,15.19,2.33,4.09,5.52,7.72,8.82,11.04,6.33,6.39,13.57,11.8,19.76,18.33,3.29,3.48,6.46,7.36,8.4,11.78,1.61,3.67,2.67,8.84-.09,12.25-.85,1.05-1.02,2.51,0,3.54.88.88,2.68,1.05,3.54,0,6.09-7.51,2.18-17.61-2.85-24.54s-12.15-12.96-18.8-18.88c-3.3-2.94-6.56-5.96-9.49-9.29s-5.88-7.25-7.03-11.73c-2.14-8.36.9-17.88,5.34-24.99,4.78-7.66,12.12-13.77,20.67-16.73,1.28-.44,2.12-1.71,1.75-3.08-.34-1.24-1.79-2.19-3.08-1.75h0Z"/>
  </g>
  <g class="cls-4">
    <path class="cls-3" d="M437.57,216.66c1.12,7.78-1.97,15.7,1.14,23.27,2.69,6.53,8.42,11.07,14.44,14.42,6.34,3.53,13.44,6.17,18.62,11.43,4.65,4.72,7.58,11.21,7.91,17.84.38,7.77-2.61,15.44-8.09,20.95-2.27,2.28,1.26,5.82,3.54,3.54,10.76-10.82,12.64-28.11,4.2-40.88-4.34-6.56-10.73-10.54-17.6-14.04-6.04-3.08-12.82-6.21-16.74-12.03-2.4-3.57-2.93-7.52-2.75-11.75.19-4.73.83-9.35.15-14.08-.19-1.34-1.89-2.07-3.08-1.75-1.44.39-1.94,1.73-1.75,3.08h0Z"/>
  </g>
  <g class="cls-4">
    <path class="cls-3" d="M426.17,213.18c-7.02,7.76-12.22,17.05-15.18,27.09-1.47,4.98-2.36,10.14-2.69,15.32-.33,5.14-.17,10.47,1.07,15.49s3.82,9.44,7.97,12.59,8.89,4.61,13.35,6.89c8.15,4.17,14.61,11.09,18.53,19.34,1.07,2.26,1.91,4.63,2.54,7.05.34,1.31.62,2.65.84,3.99.15.98.08,2.02.26,2.98-.35-1.87-.08.41-.07.36.06-.2.56.19-.12-.05-.48-.17-.99-.26-1.48-.45-1.58-.61-3.13-1.31-4.69-1.96-3.28-1.38-6.57-2.75-9.85-4.13-1.25-.52-2.75.56-3.08,1.75-.4,1.44.5,2.55,1.75,3.08,2.98,1.25,5.96,2.5,8.94,3.75,1.45.61,2.9,1.22,4.35,1.83,1.3.54,2.62,1.13,4.06,1.15,6.79.07,5.16-8.31,4.18-12.52-2.19-9.41-7.53-18.18-14.85-24.49-3.74-3.23-7.88-5.66-12.38-7.67s-9.42-3.87-12.38-7.92-3.72-8.94-3.97-13.68c-.27-5.15.09-10.33,1.1-15.39,2.27-11.42,7.54-22.19,15.36-30.83,2.16-2.38-1.37-5.93-3.54-3.54h0Z"/>
  </g>
  <g class="cls-4">
    <path class="cls-3" d="M436.77,215.4c-2.13,8.1-4.36,16.54-3.55,24.99.68,7.16,3.35,14.4,8.95,19.18s12.63,6.6,19.56,8.24c5.02,1.19,14.59,2.17,14.1,9.23-.25,3.66-2.76,6.69-5.39,9-3.18,2.8-6.8,5.06-9.69,8.18-.91.98-1,2.56,0,3.54,3.62,3.55,7.09,7.24,10.4,11.09.88,1.02,2.63.9,3.54,0,1.02-1.02.88-2.51,0-3.54-3.31-3.84-6.77-7.54-10.4-11.09v3.54c5.1-5.49,12.37-8.6,15.4-15.86,1.41-3.38,1.65-7.24-.07-10.56s-5.11-5.12-8.47-6.25c-6.69-2.25-13.91-2.82-20.33-5.88-3.05-1.45-5.87-3.41-7.93-6.11s-3.36-5.96-4.1-9.28c-2.02-9.05.52-18.35,2.82-27.09.82-3.11-4-4.44-4.82-1.33h0Z"/>
  </g>
  <g class="cls-4">
    <path class="cls-3" d="M416.97,198.29c-5.01.57-10.07.62-15.1.12s-9.68-1.8-14.52-2.83c-8.37-1.77-18.94-2-24.51,5.77-2.24,3.13-3.15,7.48-2.02,11.2,1.32,4.34,5.12,6.78,9.3,7.97,4.58,1.3,9.49,1.38,14.13.38s8.6-3.2,12.43-5.76c6.69-4.47,16.49-12.28,24.66-6.45,1.1.78,2.78.19,3.42-.9.73-1.26.21-2.63-.9-3.42-6.84-4.88-16-2.28-22.58,1.71-3.6,2.18-6.92,4.8-10.57,6.91s-7.52,3.42-11.7,3.58c-3.7.15-8.38-.29-11.45-2.61-2.48-1.88-2.68-5.21-1.64-7.93,2.87-7.47,13.02-7.06,19.38-5.77,5.21,1.06,10.29,2.45,15.59,3.05s10.72.58,16.05-.02c1.34-.15,2.5-1.04,2.5-2.5,0-1.23-1.15-2.65-2.5-2.5h0Z"/>
  </g>
  <g class="cls-4">
    <path class="cls-3" d="M447,208.5c3.22,0,3.22-5,0-5s-3.22,5,0,5h0Z"/>
  </g>
  <g class="cls-4">
    <path class="cls-3" d="M446,208.43c4.8.44,9.75.25,14.39-1.13s8.5-4.09,12.27-7.08c6.17-4.91,14.73-11.25,22.9-6.98,3.72,1.94,5.12,5.3,5.23,9.37.07,2.47-.09,4.95-.18,7.42-.04,1.3-.09,2.6-.13,3.9-.02.66.22,2.37-.25,2.95-.31.38-1.22.39-1.68.47-1.17.21-2.34.35-3.53.42-2.25.15-4.52.09-6.75-.17-4.37-.51-8.7-1.92-12.56-4.03-8.34-4.57-15.93-12.84-26.32-10.79-1.33.26-2.08,1.84-1.75,3.08.38,1.38,1.75,2.01,3.08,1.75,4.14-.82,8.1,1.11,11.55,3.21,3.94,2.41,7.56,5.34,11.67,7.48,4.49,2.33,9.32,3.74,14.34,4.32,2.45.28,4.93.33,7.39.13,2.33-.19,5.28-.3,7.29-1.63,2.29-1.52,2.44-4.19,2.52-6.69.1-2.91.2-5.82.29-8.73.15-4.99-.25-10.07-3.84-13.89-2.98-3.17-7.44-4.82-11.74-4.91-5.11-.11-10.08,1.97-14.3,4.7-4.67,3.03-8.57,7.2-13.6,9.66s-10.82,2.67-16.27,2.17c-1.35-.12-2.5,1.24-2.5,2.5,0,1.45,1.15,2.38,2.5,2.5h0Z"/>
  </g>
</svg>